<svg width="40" height="40" viewBox="0 0 40 40" fill="none" xmlns="http://www.w3.org/2000/svg">
<rect width="40" height="40" rx="6" fill="white"/>
<path d="M9.048 4.238C9.924 4.238 10.692 4.364 11.352 4.616C12.024 4.856 12.36 5.186 12.36 5.606C12.36 6.026 12.198 6.548 11.874 7.172C11.562 7.784 11.298 8.09 11.082 8.09C11.022 8.09 10.95 8.06 10.866 8C10.794 7.928 10.614 7.856 10.326 7.784C10.05 7.7 9.81 7.658 9.606 7.658C8.91 7.658 8.346 7.904 7.914 8.396C7.494 8.888 7.284 9.644 7.284 10.664C7.284 11.672 7.5 12.422 7.932 12.914C8.376 13.406 8.934 13.652 9.606 13.652C9.882 13.652 10.188 13.616 10.524 13.544C10.872 13.46 11.118 13.346 11.262 13.202C11.286 13.178 11.334 13.166 11.406 13.166C11.478 13.166 11.61 13.304 11.802 13.58C12.006 13.844 12.192 14.198 12.36 14.642C12.528 15.074 12.612 15.41 12.612 15.65C12.612 16.118 12.252 16.49 11.532 16.766C10.812 17.042 9.96 17.18 8.976 17.18C7.392 17.18 6.09 16.622 5.07 15.506C4.05 14.39 3.54 12.818 3.54 10.79C3.54 8.75 4.062 7.148 5.106 5.984C6.162 4.82 7.476 4.238 9.048 4.238ZM14.6738 15.938C13.9298 15.11 13.5578 13.964 13.5578 12.5C13.5578 11.036 13.9298 9.89 14.6738 9.062C15.4298 8.234 16.4438 7.82 17.7158 7.82C18.9878 7.82 19.9958 8.234 20.7398 9.062C21.4838 9.89 21.8558 11.036 21.8558 12.5C21.8558 13.964 21.4838 15.11 20.7398 15.938C19.9958 16.766 18.9878 17.18 17.7158 17.18C16.4438 17.18 15.4298 16.766 14.6738 15.938ZM17.7158 10.826C17.0438 10.826 16.7078 11.378 16.7078 12.482C16.7078 13.586 17.0438 14.138 17.7158 14.138C18.3998 14.138 18.7418 13.586 18.7418 12.482C18.7418 11.378 18.3998 10.826 17.7158 10.826ZM26.0804 17.054C26.0804 17.138 25.5104 17.18 24.3704 17.18C23.2424 17.18 22.6784 17.144 22.6784 17.072V13.832C22.6784 13.724 23.2424 13.67 24.3704 13.67C25.5104 13.67 26.0804 13.7 26.0804 13.76V17.054Z" fill="black"/>
<path d="M3.198 23.0955C3.198 23.0355 3.456 22.9815 3.972 22.9335C4.5 22.8735 4.932 22.8435 5.268 22.8435C6.6 22.8435 7.296 23.0175 7.356 23.3655L8.904 31.2855L10.362 23.3655C10.434 23.0175 11.178 22.8435 12.594 22.8435C12.942 22.8435 13.38 22.8675 13.908 22.9155C14.436 22.9635 14.7 23.0175 14.7 23.0775L11.514 34.9935C11.466 35.1855 11.112 35.3115 10.452 35.3715C9.432 35.4795 8.502 35.5035 7.662 35.4435C6.834 35.3715 6.396 35.2515 6.348 35.0835L3.198 23.0955ZM19.0044 35.3535C19.0044 35.4495 18.4524 35.4975 17.3484 35.4975C16.2564 35.4975 15.7104 35.4555 15.7104 35.3715V26.5335C15.7104 26.4495 16.2564 26.4075 17.3484 26.4075C18.4524 26.4075 19.0044 26.4435 19.0044 26.5155V35.3535ZM19.0044 25.4535C19.0044 25.5375 18.4524 25.5795 17.3484 25.5795C16.2564 25.5795 15.7104 25.5435 15.7104 25.4715V22.8795C15.7104 22.7595 16.2564 22.6995 17.3484 22.6995C18.4524 22.6995 19.0044 22.7355 19.0044 22.8075V25.4535ZM20.5963 29.3415C20.5123 29.3415 20.4703 29.0835 20.4703 28.5675C20.4703 27.1635 20.5843 26.4615 20.8123 26.4615H26.5543C26.6383 26.4615 26.8243 26.7255 27.1123 27.2535C27.4003 27.7815 27.5443 28.0815 27.5443 28.1535C27.5443 28.2135 27.5383 28.2495 27.5263 28.2615L24.0343 32.6535L27.1663 32.4375C27.3583 32.4375 27.4543 32.8635 27.4543 33.7155C27.4543 34.0395 27.4243 34.4115 27.3643 34.8315C27.3043 35.2515 27.2023 35.4615 27.0583 35.4615H21.2983C21.1183 35.4615 20.9023 35.1615 20.6503 34.5615C20.3983 33.9615 20.2723 33.6015 20.2723 33.4815C20.2723 33.3495 20.2843 33.2715 20.3083 33.2475L23.7463 29.2335L20.5963 29.3415ZM31.7581 35.5155C31.7581 35.5995 31.1881 35.6415 30.0481 35.6415C28.9201 35.6415 28.3561 35.6055 28.3561 35.5335V32.2935C28.3561 32.1855 28.9201 32.1315 30.0481 32.1315C31.1881 32.1315 31.7581 32.1615 31.7581 32.2215V35.5155Z" fill="black"/>
</svg>
